<?xml version="1.0" encoding="UTF-8" standalone="no"?>
<!-- Created with Inkscape (http://www.inkscape.org/) -->

<svg
   xmlns:dc="http://purl.org/dc/elements/1.1/"
   xmlns:cc="http://creativecommons.org/ns#"
   xmlns:rdf="http://www.w3.org/1999/02/22-rdf-syntax-ns#"
   xmlns:svg="http://www.w3.org/2000/svg"
   xmlns="http://www.w3.org/2000/svg"
   xmlns:sodipodi="http://sodipodi.sourceforge.net/DTD/sodipodi-0.dtd"
   xmlns:inkscape="http://www.inkscape.org/namespaces/inkscape"
   width="210mm"
   height="121mm"
   viewBox="0 0 744.09449 428.7399"
   id="svg2"
   version="1.1"
   inkscape:version="0.91 r13725"
   sodipodi:docname="404.svg">
  <defs
     id="defs4" />
  <sodipodi:namedview
     id="base"
     pagecolor="#ffffff"
     bordercolor="#666666"
     borderopacity="1.0"
     inkscape:pageopacity="0.0"
     inkscape:pageshadow="2"
     inkscape:zoom="1.4142136"
     inkscape:cx="298.25102"
     inkscape:cy="238.54771"
     inkscape:document-units="px"
     inkscape:current-layer="layer1"
     showgrid="false"
     inkscape:window-width="1280"
     inkscape:window-height="964"
     inkscape:window-x="0"
     inkscape:window-y="31"
     inkscape:window-maximized="1"
     showguides="false"
     inkscape:guide-bbox="true">
    <sodipodi:guide
       position="0,671.75146"
       orientation="1,0"
       id="guide3337" />
  </sodipodi:namedview>
  <metadata
     id="metadata7">
    <rdf:RDF>
      <cc:Work
         rdf:about="">
        <dc:format>image/svg+xml</dc:format>
        <dc:type
           rdf:resource="http://purl.org/dc/dcmitype/StillImage" />
        <dc:title />
      </cc:Work>
    </rdf:RDF>
  </metadata>
  <g
     inkscape:label="Livello 1"
     inkscape:groupmode="layer"
     id="layer1"
     transform="translate(0,-623.62248)">
    <path
       style="fill:#55ff55;stroke-width:3;stroke-miterlimit:4;stroke-dasharray:none;stroke:none;stroke-opacity:1"
       d="m 677.2176,959.4463 c -0.43875,-13.9884 -0.79773,-29.86135 -0.79773,-35.27315 l 0,-9.83966 -12.89836,-0.78358 c -7.0941,-0.43099 -25.52834,-0.78361 -40.96496,-0.78361 -15.43664,0 -35.50642,-0.35427 -44.5995,-0.78727 l -16.53288,-0.78727 0,-9.77724 c 0,-14.05982 2.42623,-21.554 14.41856,-44.53619 18.11862,-34.72266 77.25792,-137.94754 81.93185,-143.00822 3.348,-3.62504 10.31167,-4.67924 24.11959,-3.65136 l 11.21883,0.83514 -10.36355,18.22613 c -48.60254,85.47606 -77.74797,139.80215 -77.74797,144.91951 0,4.97262 4.44971,5.46472 46.30089,5.12043 l 25.1175,-0.20663 0,-7.62121 c 0,-4.19165 0.35741,-15.81996 0.79423,-25.84068 l 0.79423,-18.21947 16.15251,0 16.15249,0 0.006,12.3194 c 0.004,6.77566 0.3586,18.40397 0.79019,25.84067 l 0.78468,13.52129 5.07957,0 c 2.79377,0 9.24715,0.3498 14.34083,0.77732 l 9.26124,0.77728 0,15.44825 c 0,13.88912 -0.2138,15.45413 -2.11834,15.50659 -6.66276,0.18356 -25.82033,2.04173 -26.33678,2.55449 -0.33562,0.33324 -0.96721,16.37762 -1.40355,35.65424 l -0.79392,35.0483 -15.95399,0 -15.95398,0 -0.79774,-25.4335 z"
       id="path3401-5"
       inkscape:connector-curvature="0" />
    <path
       style="fill:#00aad4;stroke:none;stroke-opacity:1;stroke-width:3;stroke-miterlimit:4;stroke-dasharray:none"
       d="m 118.84024,959.84161 c -0.43875,-13.98844 -0.79773,-29.86135 -0.79773,-35.27315 l 0,-9.83966 -12.89836,-0.78358 c -7.094094,-0.43099 -25.528334,-0.78361 -40.964954,-0.78361 -15.43664,0 -35.506413,-0.35427 -44.599499,-0.78727 l -16.5328834,-0.78727 0,-9.77724 c 0,-14.05982 2.426232,-21.554 14.4185614,-44.53619 18.118623,-34.72266 77.257921,-137.94754 81.931851,-143.00822 3.348004,-3.62504 10.311664,-4.67924 24.119584,-3.65136 l 11.21883,0.83514 -10.36355,18.22613 c -48.602534,85.47606 -77.747964,139.80215 -77.747964,144.91951 0,4.97262 4.44971,5.46472 46.30089,5.12043 l 25.117494,-0.20663 0,-7.62121 c 0,-4.19165 0.35741,-15.81996 0.79423,-25.84068 l 0.79423,-18.21947 16.15251,0 16.15249,0 0.006,12.3194 c 0.004,6.77566 0.3586,18.40397 0.79019,25.84067 l 0.78468,13.52129 5.07957,0 c 2.79377,0 9.24715,0.3498 14.34083,0.77732 l 9.26124,0.77728 0,15.44825 c 0,13.88912 -0.2138,15.45413 -2.11834,15.50659 -6.66276,0.18356 -25.82033,2.04173 -26.33678,2.55449 -0.33562,0.33324 -0.96721,16.37762 -1.40355,35.65423 l -0.79392,35.04833 -15.95399,0 -15.95398,0 -0.79774,-25.43352 z"
       id="path3401"
       inkscape:connector-curvature="0" />
    <path
       style="fill:#ff2a2a;fill-rule:evenodd;stroke:none;stroke-width:6.1;stroke-linecap:butt;stroke-linejoin:miter;stroke-miterlimit:4;stroke-dasharray:none;stroke-opacity:1"
       d="m 254.74264,767.12724 4.5,-14.25 4.75,-11.75 7.5,-15 5.69322,-10.17077 5.65685,-7.77818 7.95495,-8.83883 6.36396,-6.01041 9.36917,-7.95495 9.36916,-7.07107 8.83884,-5.12652 11.66726,-5.83363 9.8995,-3.00521 11.49048,-2.12132 8.30851,-0.70711 9.89949,-0.35355 5.12652,0 10.25305,0.17678 12.55115,0.35355 7.77817,1.06066 5.83363,1.41421 6.18719,2.12133 6.18718,2.29809 5.65686,2.47488 6.54073,4.41941 9.72272,7.07107 6.36396,4.5962 3.00521,2.82842 4.24264,3.00521 6.01041,6.36396 6.36396,7.6014 3.18198,5.3033 5.3033,9.36916 5.83363,10.42983 4.59619,10.25304 3.18198,7.6014 2.82843,8.66206 1.41421,7.95495 1.23744,6.89429 0.88389,10.07627 3.88908,204.8842 -19.44543,-17.32412 -2.2981,-1.06066 -2.82843,0 -2.2981,1.06066 -4.06586,2.82843 -18.73833,18.03125 -26.69328,-24.04166 -29.34493,24.39516 -17.32412,-18.0312 -3.53553,-2.65165 -2.82843,-1.41421 -2.12132,-0.35356 -2.65165,0.53033 -4.24264,2.12132 -21.2132,19.97577 -25.27907,-25.27907 -27.57717,25.10227 -13.96535,-13.78856 -5.48008,-4.59619 -3.00521,-1.94455 -3.71231,-1.06066 -3.53553,0.17678 -4.77297,2.12132 -3.35876,3.18198 -4.77297,3.88909 -1.41421,-5.65686 z"
       id="path3337"
       inkscape:connector-curvature="0" />
    <circle
       style="fill:#ffffff;fill-opacity:1;stroke:none;stroke-width:3;stroke-miterlimit:4;stroke-dasharray:none;stroke-opacity:1"
       id="path4139"
       cx="346.22"
       cy="802.86249"
       r="27.5" />
    <circle
       style="fill:#ffffff;fill-opacity:1;stroke:none;stroke-width:3;stroke-miterlimit:4;stroke-dasharray:none;stroke-opacity:1"
       id="path4139-3"
       cx="413.2999"
       cy="802.86249"
       r="27.5" />
  </g>
</svg>
