<?xml version="1.0" encoding="UTF-8" standalone="no"?>
<svg
   xmlns:dc="http://purl.org/dc/elements/1.1/"
   xmlns:cc="http://creativecommons.org/ns#"
   xmlns:rdf="http://www.w3.org/1999/02/22-rdf-syntax-ns#"
   xmlns:svg="http://www.w3.org/2000/svg"
   xmlns="http://www.w3.org/2000/svg"
   xmlns:sodipodi="http://sodipodi.sourceforge.net/DTD/sodipodi-0.dtd"
   xmlns:inkscape="http://www.inkscape.org/namespaces/inkscape"
   viewBox="0 0 128 128"
   height="100%"
   width="100%"
   pointer-events="none"
   display="block"
   id="svg-1"
   version="1.1"
   inkscape:version="0.91 r13725"
   sodipodi:docname="avatar-1.svg">
  <metadata
     id="metadata19">
    <rdf:RDF>
      <cc:Work
         rdf:about="">
        <dc:format>image/svg+xml</dc:format>
        <dc:type
           rdf:resource="http://purl.org/dc/dcmitype/StillImage" />
      </cc:Work>
    </rdf:RDF>
  </metadata>
  <defs
     id="defs17" />
  <sodipodi:namedview
     pagecolor="#ffffff"
     bordercolor="#666666"
     borderopacity="1"
     objecttolerance="10"
     gridtolerance="10"
     guidetolerance="10"
     inkscape:pageopacity="0"
     inkscape:pageshadow="2"
     inkscape:window-width="1280"
     inkscape:window-height="950"
     id="namedview15"
     showgrid="false"
     inkscape:zoom="7.9999999"
     inkscape:cx="85.710725"
     inkscape:cy="78.450038"
     inkscape:window-x="0"
     inkscape:window-y="0"
     inkscape:window-maximized="1"
     inkscape:current-layer="svg-1" />
  <path
     style="opacity:1;fill:#ff8080;fill-opacity:1"
     id="path4171"
     sodipodi:type="arc"
     sodipodi:cx="63.870701"
     sodipodi:cy="63.813999"
     sodipodi:rx="64"
     sodipodi:ry="64"
     sodipodi:start="0.024176301"
     sodipodi:end="0"
     d="M 127.852,65.361132 A 64,64 0 0 1 62.710302,127.80348 64,64 0 0 1 -0.12462327,63.040376 64,64 0 0 1 64.257519,-0.18483184 64,64 0 0 1 127.8707,63.813999"
     sodipodi:open="true" />
  <path
     d="M36.3 94.8c6.4 7.3 16.2 12.1 27.3 12.4 10.7-.3 20.3-4.7 26.7-11.6l.2.1c-17-13.3-12.9-23.4-8.5-28.6 1.3-1.2 2.8-2.5 4.4-3.9l13.1-11c1.5-1.2 2.6-3 2.9-5.1.6-4.4-2.5-8.4-6.9-9.1-1.5-.2-3 0-4.3.6-.3-1.3-.4-2.7-1.6-3.5-1.4-.9-2.8-1.7-4.2-2.5-7.1-3.9-14.9-6.6-23-7.9-5.4-.9-11-1.2-16.1.7-3.3 1.2-6.1 3.2-8.7 5.6-1.3 1.2-2.5 2.4-3.7 3.7l-1.8 1.9c-.3.3-.5.6-.8.8-.1.1-.2 0-.4.2.1.2.1.5.1.6-1-.3-2.1-.4-3.2-.2-4.4.6-7.5 4.7-6.9 9.1.3 2.1 1.3 3.8 2.8 5.1l11 9.3c1.8 1.5 3.3 3.8 4.6 5.7 1.5 2.3 2.8 4.9 3.5 7.6 1.7 6.8-.8 13.4-5.4 18.4-.5.6-1.1 1-1.4 1.7-.2.6-.4 1.3-.6 2-.4 1.5-.5 3.1-.3 4.6.4 3.1 1.8 6.1 4.1 8.2 3.3 3 8 4 12.4 4.5 5.2.6 10.5.7 15.7.2 4.5-.4 9.1-1.2 13-3.4 5.6-3.1 9.6-8.9 10.5-15.2M76.4 46c.9 0 1.6.7 1.6 1.6 0 .9-.7 1.6-1.6 1.6-.9 0-1.6-.7-1.6-1.6-.1-.9.7-1.6 1.6-1.6zm-25.7 0c.9 0 1.6.7 1.6 1.6 0 .9-.7 1.6-1.6 1.6-.9 0-1.6-.7-1.6-1.6-.1-.9.7-1.6 1.6-1.6z"
     id="path5"
     fill="#FFE0B2" />
  <ellipse
     cx="76.3"
     cy="47.5"
     id="circle9"
     fill="#444"
     r="2" />
  <ellipse
     id="circle11"
     cy="47.6"
     cx="50.7"
     fill="#444"
     r="2" />
  <path
     d="M48.1 27.4c4.5 5.9 15.5 12.1 42.4 8.4-2.2-6.9-6.8-12.6-12.6-16.4C95.1 20.9 92 10 92 10c-1.4 5.5-11.1 4.4-11.1 4.4H62.1c-1.7-.1-3.4 0-5.2.3-12.8 1.8-22.6 11.1-25.7 22.9 10.6-1.9 15.3-7.6 16.9-10.2z"
     id="path13"
     fill="#444" />
  <path
     style="fill:#e0f7fa;fill-rule:evenodd;stroke:#e0f7fa;stroke-width:1px;stroke-linecap:butt;stroke-linejoin:miter;stroke-opacity:1;fill-opacity:1"
     d="m 35.762824,94.825906 -2.780487,2.492851 -3.020185,2.972243 -4.36249,4.17073 -3.068124,3.30783 -2.349033,2.78048 1.35429,1.23444 1.066652,0.94681 0.946804,0.77901 1.33032,1.05467 1.018713,0.76703 2.097351,1.47414 1.881623,1.25841 1.510092,0.89887 1.857654,1.06665 1.426198,0.74306 1.078638,0.5513 1.198486,0.56329 1.138561,0.52733 1.054668,0.43146 1.294365,0.52733 1.522077,0.57528 3.549478,1.16952 2.813559,0.79661 3.542373,0.74577 2.305085,0.42373 2.355932,0.28813 1.181607,0.13884 1.085938,0.0977 1.042968,0.0664 0.695313,0.0469 0.640625,0.0352 0.9375,0.0312 0.839844,0.0195 0.5625,0.008 1.253906,-0.0117 1.488281,-0.0391 1.195313,-0.0469 1.089843,-0.0742 0.757813,-0.0625 1.191406,-0.10547 1.179688,-0.1289 1.183593,-0.16016 0.992188,-0.15234 1.238281,-0.20313 0.921875,-0.16797 1.34375,-0.26953 0.953125,-0.21484 1.132813,-0.27344 0.953125,-0.25391 1.710937,-0.47656 1.074219,-0.32422 0.71875,-0.23828 1,-0.33594 0.835937,-0.29687 0.605469,-0.22266 0.648438,-0.24218 1.34375,-0.53516 0.832031,-0.36719 1.191406,-0.51953 1.132813,-0.53516 1.617187,-0.79296 0.898438,-0.47657 4.73369,-2.76308 3.646016,-2.58536 2.89472,-2.2981 2.62956,-2.43067 0.057,-0.0595 -7.58203,-8.58984 -1.8125,-1.625 -2.625,-1.875 -3.375,-1.75 -0.960938,-0.429687 -0.296875,-0.0625 -0.53125,-0.0078 -0.101562,0.726563 -0.1875,0.953125 -0.273438,1.039062 -0.453125,1.390625 -0.5625,1.367182 -0.484375,0.99219 -0.73691,1.29594 -0.563475,0.87836 -0.535855,0.7734 -0.668437,0.83417 -0.789971,0.9115 -0.734728,0.7513 -0.563475,0.53586 -0.574525,0.49718 -1.563369,1.23191 -1.546796,0.99437 -2.231806,1.08276 -2.032932,0.7513 -3.093592,0.7734 -1.546796,0.30936 -1.74567,0.26516 -3.248271,0.28727 -0.789971,0.0663 -1.038563,0.0718 -1.198767,0.0608 -1.088282,0.0387 -1.894825,0.0497 -1.55232,-0.0166 -1.364495,-0.0608 -0.856263,-0.0387 -0.834165,-0.0387 -1.193242,-0.0829 -1.33135,-0.11048 -1.325825,-0.13258 -1.259534,-0.15468 -1.088281,-0.14916 -1.220865,-0.20992 -0.856262,-0.15468 -0.933602,-0.21545 -0.856262,-0.22097 -1.06066,-0.33145 -0.828641,-0.28174 -0.911504,-0.37013 -0.742056,-0.34093 -0.953125,-0.53125 -0.707031,-0.45312 -0.621094,-0.45704 -0.5625,-0.44921 -0.734375,-0.69141 -0.421875,-0.45313 -0.410156,-0.49218 -0.636719,-0.8711 -0.480469,-0.79687 -0.292969,-0.57422 -0.449218,-0.94531 -0.378907,-1.05469 -0.433593,-1.58594 -0.160157,-0.96875 -0.05859,-1.08594 L 35,99.742187 35.03125,99.125 l 0.07031,-0.78125 0.160156,-0.90625 0.125,-0.527344 0.277344,-0.90625 0.144531,-0.464844 0.179687,-0.589843 0.09375,-0.230469 L 36.214844,94.5 Z"
     id="path4180"
     inkscape:connector-curvature="0" />
  <ellipse
     style="opacity:1;fill:#444444;fill-opacity:1;stroke:#444444;stroke-width:0.74204481;stroke-opacity:1"
     id="path4142"
     cy="47.582031"
     cx="50.679688"
     rx="1.2617902"
     ry="1.2656964" />
  <ellipse
     style="opacity:1;fill:#444444;fill-opacity:1;stroke:#444444;stroke-width:0.74204481;stroke-opacity:1"
     id="path4142-3"
     cy="47.59375"
     cx="76.390625"
     rx="1.2617902"
     ry="1.2656964" />
</svg>
