<?xml version="1.0" encoding="UTF-8" standalone="no"?>
<svg
   xmlns:osb="http://www.openswatchbook.org/uri/2009/osb"
   xmlns:dc="http://purl.org/dc/elements/1.1/"
   xmlns:cc="http://creativecommons.org/ns#"
   xmlns:rdf="http://www.w3.org/1999/02/22-rdf-syntax-ns#"
   xmlns:svg="http://www.w3.org/2000/svg"
   xmlns="http://www.w3.org/2000/svg"
   xmlns:xlink="http://www.w3.org/1999/xlink"
   xmlns:sodipodi="http://sodipodi.sourceforge.net/DTD/sodipodi-0.dtd"
   xmlns:inkscape="http://www.inkscape.org/namespaces/inkscape"
   viewBox="0 0 128 128"
   height="100%"
   width="100%"
   id="svg-6"
   y="384"
   fit=""
   preserveAspectRatio="xMidYMid meet"
   focusable="false"
   version="1.1"
   inkscape:version="0.91 r13725"
   sodipodi:docname="avatar-3.svg">
  <metadata
     id="metadata23">
    <rdf:RDF>
      <cc:Work
         rdf:about="">
        <dc:format>image/svg+xml</dc:format>
        <dc:type
           rdf:resource="http://purl.org/dc/dcmitype/StillImage" />
      </cc:Work>
    </rdf:RDF>
  </metadata>
  <defs
     id="defs21">
    <linearGradient
       id="linearGradient5731"
       osb:paint="solid">
      <stop
         style="stop-color:#80deea;stop-opacity:1;"
         offset="0"
         id="stop5733" />
    </linearGradient>
    <linearGradient
       id="linearGradient5725"
       osb:paint="solid">
      <stop
         style="stop-color:#80deea;stop-opacity:0;"
         offset="0"
         id="stop5727" />
    </linearGradient>
    <linearGradient
       id="linearGradient5719"
       osb:paint="solid">
      <stop
         style="stop-color:#80deea;stop-opacity:0;"
         offset="0"
         id="stop5721" />
    </linearGradient>
    <linearGradient
       id="linearGradient5697"
       osb:paint="solid">
      <stop
         style="stop-color:#f2a600;stop-opacity:1;"
         offset="0"
         id="stop5699" />
    </linearGradient>
    <linearGradient
       id="linearGradient5679"
       osb:paint="solid">
      <stop
         style="stop-color:#ff8e7d;stop-opacity:1;"
         offset="0"
         id="stop5681" />
    </linearGradient>
    <linearGradient
       id="linearGradient5671"
       osb:paint="solid">
      <stop
         style="stop-color:#198a80;stop-opacity:0;"
         offset="0"
         id="stop5673" />
    </linearGradient>
    <linearGradient
       id="linearGradient5665"
       osb:paint="solid">
      <stop
         style="stop-color:#0000d5;stop-opacity:1;"
         offset="0"
         id="stop5667" />
    </linearGradient>
    <linearGradient
       inkscape:collect="always"
       xlink:href="#linearGradient5679"
       id="linearGradient5683"
       x1="1.1661947"
       y1="64.45414"
       x2="127.76601"
       y2="64.45414"
       gradientUnits="userSpaceOnUse"
       gradientTransform="matrix(1.0110597,0,0,1.0110603,-0.35520243,-0.4640449)" />
    <linearGradient
       inkscape:collect="always"
       xlink:href="#linearGradient5697"
       id="linearGradient5701"
       x1="12.972687"
       y1="86.749478"
       x2="49.873171"
       y2="86.749478"
       gradientUnits="userSpaceOnUse"
       gradientTransform="translate(0.99999987,3.2500003)" />
    <linearGradient
       inkscape:collect="always"
       xlink:href="#linearGradient5725"
       id="linearGradient5729"
       x1="27.560009"
       y1="109.30512"
       x2="104.22242"
       y2="109.30512"
       gradientUnits="userSpaceOnUse"
       gradientTransform="translate(0.99999987,3.2500003)" />
    <linearGradient
       inkscape:collect="always"
       xlink:href="#linearGradient5731"
       id="linearGradient5735"
       x1="27.560009"
       y1="109.30512"
       x2="104.22242"
       y2="109.30512"
       gradientUnits="userSpaceOnUse"
       gradientTransform="translate(0.99999987,3.2500003)" />
  </defs>
  <sodipodi:namedview
     pagecolor="#ffffff"
     bordercolor="#666666"
     borderopacity="1"
     objecttolerance="10"
     gridtolerance="10"
     guidetolerance="10"
     inkscape:pageopacity="0"
     inkscape:pageshadow="2"
     inkscape:window-width="1280"
     inkscape:window-height="950"
     id="namedview19"
     showgrid="false"
     inkscape:zoom="4"
     inkscape:cx="94.621736"
     inkscape:cy="52.131633"
     inkscape:window-x="0"
     inkscape:window-y="0"
     inkscape:window-maximized="1"
     inkscape:current-layer="svg-6" />
  <ellipse
     style="opacity:1;fill:url(#linearGradient5683);fill-opacity:1;stroke:#ff8e7d;stroke-width:5.56184006;stroke-miterlimit:4;stroke-dasharray:none;stroke-opacity:0"
     id="path3351"
     cx="64.823891"
     cy="64.70295"
     rx="61.219078"
     ry="61.219074" />
  <path
     d="m 36.922021,47.996212 c 2.66404,-0.373197 5.24214,0.932995 6.617126,3.172189 8.851474,-1.865991 9.453033,-10.72946 10.828019,-13.155249 3.867152,5.411378 11.42957,16.607336 33.944976,13.528449 1.374987,-2.519092 4.039025,-4.011887 6.874937,-3.545389 0.343745,0 0.601554,-1.772689 0.859365,-1.679393 -0.08596,-2.052594 -0.257811,-4.105185 -0.687493,-5.971177 l 0,-0.0933 C 92.437103,25.511005 80.320034,14.501646 65.882681,14.501646 c -12.890501,0 -23.890395,8.770168 -28.187227,21.08572 -1.203113,3.358787 -1.890605,7.090772 -1.976543,10.916059 l 0.601559,1.679393 0.601551,-0.1866 z"
     id="path5"
     inkscape:connector-curvature="0"
     style="fill:#f2a600" />
  <path
     d="M89.1 102.8l.4-.3c-.1 0-.3.1-.4.3zm2.2-1.9l-.5.4c.2-.2.3-.3.5-.4zm-18 9.2c-.1 0-.2 0-.3.1.1-.1.2-.1.3-.1zm-2.4.4h-.2.2zm16.1-6.2l.3-.2-.3.2zm-9 4.5l.5-.2-.5.2zm4.9-2.1l.2-.1c-.1.1-.1.1-.2.1zm2-1.1l.5-.3-.5.3zm-4.6 2.3l.4-.2c-.1.1-.2.2-.4.2zm12.6-8.6zM30.3 41.7c-.3 0-.5.1-.7.1.2 0 .5 0 .7-.1zm35.9 69.2c-.6 0-1.2 0-1.9-.1.6 0 1.2.1 1.9.1z"
     fill="none"
     id="path7" />
  <path
     d="m 68.546715,110.69358 -1.718737,0 1.718737,0 z M 44.226639,98.75122 c -0.343745,0.2799 1.804669,5.2248 2.148417,5.5047 1.546859,1.67938 3.523401,2.05256 5.41401,3.26545 4.124959,2.5191 8.76554,3.35879 13.406117,3.91859 4.898389,0.55981 9.882717,-0.46649 14.437359,-2.42576 2.148419,-0.93304 4.124958,-2.14592 6.015566,-3.54543 1.031239,-0.74638 1.890607,-1.49275 2.83591,-2.42577 0.343745,-0.27985 2.06248,-3.358784 2.32029,-3.078885 -3.437467,-3.078892 -6.874934,-6.437675 -8.937414,-10.822757 -1.890603,-3.918588 -2.234352,-8.49027 -0.429679,-12.502154 1.460919,-3.078889 3.867146,-5.224784 6.273373,-7.370674 1.890605,-1.679395 3.695274,-3.358785 5.585883,-5.131479 l 4.039012,-3.638688 c 0.859401,-0.746394 1.804664,-1.492792 2.40624,-2.51909 1.289057,-1.86599 1.632857,-4.291783 1.031277,-6.530974 -1.203193,-4.478384 -6.101543,-6.717576 -9.882758,-4.571684 -0.859364,0.466502 -1.632793,1.2129 -2.234352,2.052592 l -0.429682,0.653099 -0.945303,0.0933 c -0.687496,0.09329 -1.374986,0.186599 -2.062483,0.186599 -2.234352,0.186603 -4.554639,0.2799 -6.788993,0.09331 -5.843693,-0.27991 -11.601451,-1.959303 -16.413896,-5.597986 -3.093727,-2.239193 -5.414012,-5.224783 -7.648367,-8.396972 -0.429686,0.839698 -0.687496,1.772694 -0.945306,2.612394 -0.42968,1.306192 -0.859363,2.519088 -1.374983,3.731984 -1.460923,3.078888 -3.867151,5.411374 -7.046807,6.437673 -0.429684,0.186599 -0.945302,0.279901 -1.460923,0.373203 -0.25781,-0.466501 -0.601556,-0.839697 -0.945303,-1.212903 -0.773429,-0.559791 -1.80467,-1.212893 -2.835908,-1.492789 -2.148417,-0.653098 -4.468707,-0.186596 -6.187441,1.30619 -3.351529,2.892292 -3.437468,8.583573 -0.08597,11.662457 l 9.023342,8.30367 c 2.062482,1.865995 3.69528,4.478382 5.070265,6.904177 1.804669,3.265487 2.921847,7.090771 2.749974,10.916056 -0.257811,5.224779 -2.835908,9.703164 -6.101505,13.248551 -0.08597,0.0933 11.687385,-12.408853 0,0 z"
     id="path11"
     inkscape:connector-curvature="0"
     style="fill:#ffe0b2" />
  <ellipse
     cx="78.687233"
     cy="55.087006"
     id="circle15"
     style="fill:#444444"
     rx="1.7187332"
     ry="1.8659929" />
  <ellipse
     cx="56.601532"
     cy="55.087006"
     id="circle17"
     style="fill:#444444"
     rx="1.7187332"
     ry="1.8659929" />
  <path
     style="fill:url(#linearGradient5701);fill-opacity:1;fill-rule:evenodd;stroke:#000000;stroke-width:0;stroke-linecap:butt;stroke-linejoin:miter;stroke-miterlimit:4;stroke-dasharray:none;stroke-opacity:1"
     d="m 14.491525,99.385593 3.335218,4.586907 4.358572,5.08828 3.982895,3.43706 3.096898,2.0781 4.429593,-6.14509 3.30782,-4.17075 2.301092,-2.20524 2.588729,-1.86963 2.061396,-0.874884 0.09589,-0.05395 0.07191,-0.119847 0.03598,-0.113858 0.01794,-0.131829 0.01798,-0.113856 0.113856,-0.119852 0.713102,-0.796993 0.743058,-0.934815 0.695124,-0.886887 0.683137,-1.018709 0.850924,-1.438182 0.527333,-1.066654 0.491377,-1.138563 0.395429,-1.058573 0.347461,-1.161015 0.288133,-1.228814 0.211866,-1.550847 0.118645,-1.220339 -0.0084,-0.72034 -0.0593,-1.211866 -0.101712,-0.881352 -0.161016,-1.04661 -0.216101,-1.012708 -0.300852,-1.13136 -0.216101,-0.673726 -0.305082,-0.851696 -0.56356,-1.347458 -0.461866,-0.961865 -0.360169,-0.68644 -0.563559,-0.974577 -0.559321,-0.932205 -0.648306,-1.00847 -0.902543,-1.31356 -0.474575,-0.614407 -2.690678,-2.978808 -2.677967,-2.338992 -0.677964,2.338992 -1.186442,3.423724 -1.491524,3.050844 -1.389833,2.406781 -1.305086,1.999999 -0.677964,1.000001 -0.974572,1.330509 -1.567132,1.968881 -1.347923,1.552322 -0.928076,0.994369 -1.193243,1.193241 -0.646342,0.618719 -1.695953,1.568893 -0.613193,0.530331 -1.353444,1.14905 -0.596624,0.458515 -0.563476,0.408794 -2.193135,1.961117 -1.414213,1.723572 -0.839688,1.259531 -0.905982,1.657284 -0.972271,1.900349 -0.08838,0.26517 z"
     id="path5685"
     inkscape:connector-curvature="0"
     sodipodi:nodetypes="cccccccccccccccccccccccccccccccccccccccccccccccccccccccccccccccccccccc" />
  <path
     style="fill:url(#linearGradient5735);fill-opacity:1;fill-rule:evenodd;stroke:url(#linearGradient5729);stroke-width:0.99999964px;stroke-linecap:butt;stroke-linejoin:miter;stroke-opacity:0"
     d="m 44.195308,98.785155 -0.02734,0.144532 -0.02347,0.156251 -0.03515,0.109373 -0.08206,0.08205 -0.117187,0.06643 -0.187499,0.07034 -0.476562,0.199221 -0.57422,0.246094 -0.589844,0.261644 -0.23828,0.0977 -0.36719,0.28133 -0.460936,0.32805 -0.523437,0.36717 -0.609377,0.43367 -0.503903,0.38665 -0.06641,0.0391 -0.0586,0.0508 -0.08597,0.0898 -0.695315,0.66402 -0.566402,0.52737 -0.605473,0.58982 -0.296872,0.29685 -0.320312,0.3867 -0.742189,0.94927 -0.578126,0.72652 -1.300781,1.62113 -0.445309,0.58203 -0.441412,0.60935 -0.789062,1.10548 -0.777342,1.08592 -0.617192,0.84377 -1.718745,2.38671 0.351562,0.22655 0.320314,0.22268 0.617187,0.41796 0.574215,0.3867 0.496093,0.32815 1.019539,0.64063 0.804683,0.49609 0.667969,0.39062 1.011719,0.57031 1.19922,0.64845 1.167968,0.60547 1.437499,0.68753 0.871094,0.40622 0.777343,0.33588 0.660157,0.28131 0.972655,0.4023 0.933594,0.35551 0.59375,0.22652 0.75,0.26569 0.550782,0.19524 0.562499,0.18365 0.558594,0.18752 0.351564,0.10542 0.902343,0.27347 0.789061,0.23045 0.632813,0.16401 0.734372,0.20319 0.40625,0.0937 0.664068,0.16793 0.675778,0.16403 0.941409,0.1954 0.691404,0.13278 0.863284,0.16793 0.718745,0.12501 0.976564,0.1602 0.871093,0.12499 0.968752,0.12497 0.886716,0.10154 1.132814,0.10942 1.265622,0.10157 1.242195,0.0703 1.042962,0.0391 1.570314,0.0273 0.800781,0.004 1.597659,-0.0312 1.769534,-0.0781 2.437496,-0.20317 2.363284,-0.28901 2.046873,-0.32039 0.859375,-0.15622 1.421873,-0.30466 1.050782,-0.23441 0.871093,-0.2148 1.738281,-0.46094 1.480471,-0.42583 0.339839,-0.12105 1.488284,-0.47268 1.078125,-0.39453 0.550781,-0.20703 1.191406,-0.45708 0.972655,-0.39055 0.339846,-0.1563 0.835937,-0.37494 0.617186,-0.2735 0.835937,-0.39451 0.550782,-0.26171 1.042969,-0.52345 0.878907,-0.45705 0.703124,-0.37495 0.484376,-0.28518 0.832031,-0.47659 0.683596,-0.3945 0.757832,-0.46873 0.484378,-0.31644 0.871061,-0.56251 0.660221,-0.43357 0.585958,-0.39842 0.453077,-0.32424 1.41797,-1.03516 0.76957,-0.58984 0.53907,-0.41796 0.80459,-0.64453 0.85158,-0.71875 -1.37108,-2.05471 -1.53127,-1.68749 -1.906196,-1.68751 -2.71879,-2.15622 -2.562504,-1.65629 -2.000001,-1.18747 -1.218749,-0.69536 -0.398439,-0.179622 -0.09768,-0.01954 -0.0664,0.02345 -0.07424,0.05857 -0.113281,0.11716 -0.203123,0.24612 -0.257814,0.35934 -0.562326,0.89707 -0.729205,1.08277 -0.475085,0.57451 -0.618719,0.54139 -0.751302,0.66292 -0.662913,0.53032 -0.45299,0.36457 -0.798242,0.55739 -0.390624,0.26567 -0.48828,0.33199 -0.39844,0.24613 -0.257809,0.17185 -0.585938,0.3594 -0.394534,0.24605 -0.390625,0.21881 -0.406251,0.23432 -0.367186,0.17967 -0.48828,0.25397 -0.417969,0.21089 -0.324218,0.14062 -0.335937,0.14068 -0.605468,0.27339 -0.394531,0.16016 -0.410157,0.15237 -0.531253,0.19527 -1.28125,0.44146 -1.26953,0.37495 -1.351565,0.33595 -0.703123,0.14453 -0.699219,0.14064 -1.07031,0.168 -1.121094,0.13667 -1.125,0.0781 -0.445307,0.0117 -0.87501,0.0195 -0.82421,-0.0156 -0.296881,-0.0195 -0.601561,-0.0273 -0.593748,-0.0547 -0.496097,-0.0508 -1.152345,-0.15622 -0.417968,-0.0469 -0.82812,-0.11724 -0.468749,-0.0859 -0.921883,-0.15235 -0.890619,-0.17575 -0.679689,-0.14455 -1.07422,-0.25001 -0.726558,-0.19526 -0.695319,-0.19926 -0.296872,-0.10157 -0.625001,-0.19137 -0.765624,-0.27737 -0.582028,-0.22264 -0.25391,-0.10936 -0.585934,-0.25786 -0.671875,-0.32809 -0.628912,-0.32425 -0.886714,-0.50392 -0.457033,-0.27729 -0.488282,-0.2813 -0.347653,-0.16403 -0.679688,-0.33596 -0.82422,-0.39059 -0.746095,-0.37893 -0.218749,-0.12498 -0.406251,-0.23829 -0.578121,-0.41406 -0.566411,-0.48827 -0.152341,-0.16801 -0.113284,-0.125 -0.41406,-0.75384 -0.406249,-0.87895 -0.246084,-0.55094 -0.523434,-1.30077 -0.281252,-0.765613 -0.160156,-0.546874 -0.06641,-0.285157 -0.03125,-0.214845 z"
     id="path5717"
     inkscape:connector-curvature="0" />
</svg>
